HIERARCHY
ROOT ui
{
	 OFFSET 0 0 0
	 CHANNELS 3 XPosition YPosition Z Position
	 EndSite
	 {
	 OFFSET 0 -1 0
	 }
}
ROOT li
{
	 OFFSET 0 0 0
	 CHANNELS 3 XPosition YPosition Z Position
	 EndSite
	 {
	 OFFSET 0 -1 0
	 }
}
ROOT ul
{
	 OFFSET 0 0 0
	 CHANNELS 3 XPosition YPosition Z Position
	 EndSite
	 {
	 OFFSET 0 -1 0
	 }
}
ROOT ll
{
	 OFFSET 0 0 0
	 CHANNELS 3 XPosition YPosition Z Position
	 EndSite
	 {
	 OFFSET 0 -1 0
	 }
}
ROOT tt
{
	 OFFSET 0 0 0
	 CHANNELS 3 XPosition YPosition Z Position
	 EndSite
	 {
	 OFFSET 0 -1 0
	 }
}
ROOT tb
{
	 OFFSET 0 0 0
	 CHANNELS 3 XPosition YPosition Z Position
	 EndSite
	 {
	 OFFSET 0 -1 0
	 }
}
ROOT td
{
	 OFFSET 0 0 0
	 CHANNELS 3 XPosition YPosition Z Position
	 EndSite
	 {
	 OFFSET 0 -1 0
	 }
}
ROOT v
{
	 OFFSET 0 0 0
	 CHANNELS 3 XPosition YPosition Z Position
	 EndSite
	 {
	 OFFSET 0 -1 0
	 }
}
ROOT bn
{
	 OFFSET 0 0 0
	 CHANNELS 3 XPosition YPosition Z Position
	 EndSite
	 {
	 OFFSET 0 -1 0
	 }
}
MOTION
Frames: 16
Frame Time: 0.002
-0.0056176939010620115	-4.6330001205205915E-6	0		0.448537109375	-2.371531005859375	0		-1.0861656494140626	-0.03202241897583008	0		-0.865625	-2.518320068359375	0		1.3180469970703126	-0.75443408203125	0		3.08690869140625	-0.27191867065429687	0		4.672044921875	-0.128887939453125	0		5.5693564453125	0.10369029235839844	0		-0.19363046264648437	5.91317138671875	0		
0.06219455718994141	-7.250329852104187E-4	0		0.488676025390625	-2.371001220703125	0		-1.0223480834960939	-0.0313718204498291	0		-0.8455267333984375	-2.517124755859375	0		1.3166466064453124	-0.7545626831054687	0		3.070791748046875	-0.2623506774902344	0		4.68410791015625	-0.11017872619628906	0		5.5633193359375	0.1103944320678711	0		-0.0769038314819336	5.92583837890625	0		
-0.011040336608886718	-0.002454072952270508	0		0.4288333435058594	-2.36905224609375	0		-1.098533447265625	-0.028754108428955077	0		-0.8484595336914063	-2.51862451171875	0		1.327076171875	-0.765855224609375	0		3.071331298828125	-0.2759900817871094	0		4.66982177734375	-0.11505447387695313	0		5.5729189453125	0.09292705535888672	0		-0.20876083374023438	5.9050166015625	0		
0.061690185546875	-0.008300820350646972	0		0.4539674377441406	-2.3723251953125	0		-1.1078304443359375	-0.03510483169555664	0		-0.8424661865234375	-2.52827685546875	0		1.3057015380859376	-0.7646769409179688	0		3.0700703125	-0.2765708618164063	0		4.6744853515625	-0.12414878845214844	0		5.55690478515625	0.10189885711669922	0		-0.07703509521484375	5.92738134765625	0		
-0.018320878982543944	0.002088685989379883	0		0.40034506225585936	-2.363437744140625	0		-1.1008878173828125	-0.027722820281982422	0		-0.8422234497070312	-2.52587109375	0		1.3064017333984375	-0.7618104858398438	0		3.074742919921875	-0.2842059326171875	0		4.6671826171875	-0.1330069580078125	0		5.55162890625	0.09078952789306641	0		-0.20804417419433593	5.9055869140625	0		
0.06249398422241211	-0.003943609952926636	0		0.4566701049804687	-2.365203857421875	0		-1.097949462890625	-0.024317930221557617	0		-0.8778345947265624	-2.51994970703125	0		1.31122900390625	-0.75499951171875	0		3.055927734375	-0.26144589233398435	0		4.67014208984375	-0.12795164489746094	0		5.5587919921875	0.1055760269165039	0		-0.06126333236694336	5.9376220703125	0		
-0.015518596649169922	-0.0015800280570983888	0		0.42612625122070313	-2.364664794921875	0		-1.10303662109375	-0.026827856063842772	0		-0.8543411865234375	-2.514954833984375	0		1.310029541015625	-0.7550919189453125	0		3.0665869140625	-0.27809820556640624	0		4.67596923828125	-0.13587675476074218	0		5.55779345703125	0.10556581115722656	0		-0.07518460083007812	5.92704296875	0		
0.06048982238769531	-0.003606300115585327	0		0.44962588500976564	-2.368966796875	0		-1.10400830078125	-0.02643715286254883	0		-0.89378564453125	-2.5130205078125	0		1.3058515625	-0.759132080078125	0		3.06965869140625	-0.27259695434570314	0		4.6591181640625	-0.1273827133178711	0		5.5575830078125	0.08762297821044922	0		-0.20731915283203126	5.90629248046875	0		
-0.02144397735595703	-0.005185362815856934	0		0.4193050231933594	-2.3684375	0		-1.02993408203125	-0.02826837730407715	0		-0.8242554931640625	-2.52082568359375	0		1.3197059326171876	-0.766451416015625	0		3.055667724609375	-0.27579388427734375	0		4.67405517578125	-0.13732421875	0		5.551861328125	0.09684805297851562	0		-0.20811477661132813	5.908498046875	0		
-0.01821065139770508	-0.0011121920347213746	0		0.422149658203125	-2.364436767578125	0		-1.09982275390625	-0.03086395263671875	0		-0.9224549560546875	-2.51700927734375	0		1.306927734375	-0.755344482421875	0		3.0360029296875	-0.262861083984375	0		4.662220703125	-0.13678367614746093	0		5.546888671875	0.08613396453857422	0		-0.07465409088134765	5.92754248046875	0		
-0.015929035186767578	0.00195802903175354	0		0.4251114807128906	-2.359448486328125	0		-1.0965457763671875	-0.027648797988891603	0		-0.8357681884765625	-2.528171142578125	0		1.3090970458984375	-0.7524715576171875	0		3.067032470703125	-0.27371075439453124	0		4.6576279296875	-0.12529875183105468	0		5.55923046875	0.09121427154541016	0		-0.19074806213378906	5.9155390625	0		
0.05729183578491211	-0.0031405839920043946	0		0.4220574951171875	-2.361372802734375	0		-1.1031722412109375	-0.022304697036743162	0		-0.8836279296875	-2.516197265625	0		1.305242919921875	-0.7554983520507812	0		3.048666748046875	-0.25073374938964843	0		4.66303564453125	-0.11792312622070313	0		5.54957177734375	0.09271302795410157	0		-0.060269107818603514	5.93855078125	0		
-0.025260881423950197	0.0032783679962158203	0		0.44604083251953125	-2.36674658203125	0		-1.0328948974609375	-0.027246044158935546	0		-0.8266023559570312	-2.517953125	0		1.319373291015625	-0.7638154907226562	0		3.055646728515625	-0.2721461486816406	0		4.6551806640625	-0.13028726196289062	0		5.5489375	0.09212525177001953	0		-0.20673027038574218	5.90703564453125	0		
-0.020916481018066407	-7.280070185661316E-4	0		0.41416262817382815	-2.36821240234375	0		-1.108460693359375	-0.02482521057128906	0		-0.8915420532226562	-2.521735107421875	0		1.3038336181640624	-0.7556419067382812	0		3.05502734375	-0.27240924072265627	0		4.6545771484375	-0.13072611999511718	0		5.54422705078125	0.08365513610839843	0		-0.22183328247070314	5.89737939453125	0		
-0.0214536190032959	-6.645399928092956E-4	0		0.415421875	-2.366225830078125	0		-1.109000244140625	-0.024653120040893553	0		-0.84348681640625	-2.531395263671875	0		1.30322119140625	-0.7557107543945313	0		3.06032958984375	-0.28075131225585936	0		4.6588935546875	-0.13921134948730468	0		5.54783056640625	0.09109541320800782	0		-0.20661773681640624	5.90721337890625	0		
-0.026869953155517576	0.003471751928329468	0		0.39184320068359374	-2.358829833984375	0		-1.099520751953125	-0.02666707229614258	0		-0.8869444580078125	-2.515552734375	0		1.305718505859375	-0.752827880859375	0		3.0432060546875	-0.2576976013183594	0		4.66072998046875	-0.11961886596679687	0		5.54735498046875	0.09064326477050781	0		-0.19238365173339844	5.918048828125	0		
